<?xml version="1.0" encoding="UTF-8" standalone="no"?>
<!-- Created with Inkscape (http://www.inkscape.org/) -->

<svg
   width="190.73547mm"
   height="104.3302mm"
   viewBox="0 0 190.73547 104.3302"
   version="1.1"
   id="svg5"
   xml:space="preserve"
   inkscape:version="1.2 (dc2aedaf03, 2022-05-15)"
   sodipodi:docname="Pipe Tangential Joint Layout.svg"
   xmlns:inkscape="http://www.inkscape.org/namespaces/inkscape"
   xmlns:sodipodi="http://sodipodi.sourceforge.net/DTD/sodipodi-0.dtd"
   xmlns="http://www.w3.org/2000/svg"
   xmlns:svg="http://www.w3.org/2000/svg"><sodipodi:namedview
     id="namedview7"
     pagecolor="#ffffff"
     bordercolor="#000000"
     borderopacity="0.25"
     inkscape:showpageshadow="2"
     inkscape:pageopacity="0.0"
     inkscape:pagecheckerboard="0"
     inkscape:deskcolor="#d1d1d1"
     inkscape:document-units="mm"
     showgrid="false"
     inkscape:zoom="0.4204826"
     inkscape:cx="162.90805"
     inkscape:cy="52.320833"
     inkscape:window-width="1920"
     inkscape:window-height="1094"
     inkscape:window-x="-11"
     inkscape:window-y="-11"
     inkscape:window-maximized="1"
     inkscape:current-layer="g1971" /><defs
     id="defs2"><marker
       id="DistanceX"
       orient="auto"
       refX="0"
       refY="0"
       style="overflow:visible"><path
         d="M 3,-3 -3,3 M 0,-5 V 5"
         style="stroke:#000000;stroke-width:0.5"
         id="path1952" /></marker><pattern
       id="Hatch"
       patternUnits="userSpaceOnUse"
       width="8"
       height="8"
       x="0"
       y="0"><path
         d="M8 4 l-4,4"
         stroke="#000000"
         stroke-width="0.25"
         linecap="square"
         id="path1955" /><path
         d="M6 2 l-4,4"
         stroke="#000000"
         stroke-width="0.25"
         linecap="square"
         id="path1957" /><path
         d="M4 0 l-4,4"
         stroke="#000000"
         stroke-width="0.25"
         linecap="square"
         id="path1959" /></pattern><symbol
       id="*Model_Space" /><symbol
       id="*Paper_Space" /><symbol
       id="*Paper_Space0" /></defs><g
     inkscape:label="Layer 1"
     inkscape:groupmode="layer"
     id="layer1"
     transform="translate(-6.7767267,-140.38151)"><g
       inkscape:label="0"
       id="g1971"
       transform="matrix(0.26458333,0,0,0.26458333,227.40645,22.51747)"><path
         d="m -113.48617,642.62984 c 0,18.38289 -3.07264,36.76578 -8.94659,54.20231 -5.87395,17.43652 -14.54921,33.92666 -25.48605,48.68771 -5.46842,7.38052 -11.50224,14.32876 -17.91111,20.94995 -6.40887,6.6212 -13.19279,12.91533 -20.69658,18.17402 -7.50379,5.25869 -15.72744,9.48193 -23.64736,14.18385 -7.91992,4.70193 -15.53611,9.88254 -23.63246,14.14239 -16.19271,8.51971 -34.30606,13.35638 -52.41944,17.18687 -18.11338,3.83049 -36.2268,6.65482 -54.5142,8.04926 -18.28739,1.39444 -36.74876,1.35899 -55.12289,0.36902 -18.37413,-0.98997 -36.66103,-2.93446 -54.81639,-5.73208 -18.15536,-2.79761 -36.17919,-6.44834 -54.0985,-10.59027 -17.91931,-4.14193 -35.73412,-8.77506 -53.15387,-14.5815 -17.41975,-5.80644 -34.44446,-12.78619 -51.65434,-19.24127 -17.20988,-6.45509 -34.60493,-12.3855 -51.6494,-19.25029 -17.04447,-6.86478 -33.73835,-14.66393 -49.92871,-23.3495 -8.09518,-4.34278 -16.06449,-8.90717 -24.18188,-13.22094 -8.11738,-4.31378 -16.38285,-8.37694 -24.2213,-13.15569 -7.83845,-4.77874 -15.24988,-10.27306 -22.62353,-15.73472 -3.68682,-2.73084 -7.3642,-5.45351 -11.23569,-7.96929 -3.87148,-2.51578 -7.93708,-4.82468 -11.39045,-7.79455 -3.45336,-2.96986 -6.2945,-6.6007 -9.50392,-9.93909 -1.60471,-1.66919 -3.30149,-3.26528 -4.97205,-4.87073 -1.67055,-1.60546 -3.31489,-3.22028 -4.62214,-5.07514 -1.30724,-1.85486 -2.2774,-3.94975 -3.39225,-5.96907 -1.11485,-2.01932 -2.3744,-3.96306 -3.32504,-6.04709 -0.95063,-2.08403 -1.59236,-4.30834 -2.04066,-6.56909 -0.44829,-2.26074 -0.70316,-4.55791 -0.70316,-6.85507 0,-2.29717 0.25487,-4.59434 0.70316,-6.85508 0.4483,-2.26074 1.09003,-4.48506 2.04066,-6.56909 0.95064,-2.08403 2.21019,-4.02777 3.32504,-6.04708 1.11485,-2.01932 2.08501,-4.11422 3.39225,-5.96907 1.30725,-1.85486 2.95159,-3.46969 4.62214,-5.07514 1.67056,-1.60545 3.36734,-3.20154 4.97205,-4.87074 3.20942,-3.33839 6.05056,-6.96922 9.50392,-9.93908 3.45337,-2.96987 7.51897,-5.27877 11.39045,-7.79455 3.87149,-2.51579 7.54887,-5.23846 11.23569,-7.96929 7.37365,-5.46166 14.78508,-10.95598 22.62353,-15.73473 7.83845,-4.77874 16.10392,-8.84191 24.2213,-13.15568 8.11739,-4.31378 16.0867,-8.87816 24.18188,-13.22095 16.19036,-8.68556 32.88424,-16.48471 49.92871,-23.3495 17.04447,-6.86478 34.43952,-12.7952 51.6494,-19.25028 17.20988,-6.45508 34.23459,-13.43484 51.65434,-19.24128 17.41975,-5.80644 35.23456,-10.43956 53.15387,-14.58149 17.91931,-4.14193 35.94314,-7.79266 54.0985,-10.59028 18.15536,-2.79761 36.44226,-4.74211 54.81639,-5.73208 18.37413,-0.98997 36.8355,-1.02541 55.12289,0.36903 18.2874,1.39444 36.40082,4.21876 54.5142,8.04926 18.11338,3.83049 36.22673,8.66716 52.41944,17.18686 8.09635,4.25986 15.71254,9.44047 23.63246,14.14239 7.91992,4.70193 16.14357,8.92517 23.64736,14.18385 7.50379,5.25869 14.28771,11.55283 20.69658,18.17402 6.40887,6.62119 12.44269,13.56944 17.91111,20.94996 10.93684,14.76104 19.6121,31.25119 25.48605,48.68771 5.87395,17.43652 8.94659,35.81941 8.94659,54.20231 z"
         style="fill:none;stroke:#ff0000"
         id="path1969" /></g></g></svg>
