<?xml version="1.0" encoding="UTF-8" standalone="no"?>
<!-- Created with Inkscape (http://www.inkscape.org/) -->

<svg
   width="97.910454mm"
   height="76.08342mm"
   viewBox="0 0 97.910454 76.08342"
   version="1.1"
   id="svg1"
   inkscape:export-filename="thumb-invert.webp"
   inkscape:export-xdpi="96"
   inkscape:export-ydpi="96"
   inkscape:version="1.3.2 (091e20e, 2023-11-25, custom)"
   sodipodi:docname="favicon-invert.svg"
   xmlns:inkscape="http://www.inkscape.org/namespaces/inkscape"
   xmlns:sodipodi="http://sodipodi.sourceforge.net/DTD/sodipodi-0.dtd"
   xmlns="http://www.w3.org/2000/svg"
   xmlns:svg="http://www.w3.org/2000/svg">
  <sodipodi:namedview
     id="namedview1"
     pagecolor="#ffffff"
     bordercolor="#666666"
     borderopacity="1.0"
     inkscape:showpageshadow="2"
     inkscape:pageopacity="0.0"
     inkscape:pagecheckerboard="0"
     inkscape:deskcolor="#d1d1d1"
     inkscape:document-units="mm"
     inkscape:zoom="1.4948513"
     inkscape:cx="179.61653"
     inkscape:cy="133.45809"
     inkscape:window-width="1920"
     inkscape:window-height="1017"
     inkscape:window-x="-8"
     inkscape:window-y="-8"
     inkscape:window-maximized="1"
     inkscape:current-layer="layer1" />
  <defs
     id="defs1" />
  <g
     inkscape:label="Layer 1"
     inkscape:groupmode="layer"
     id="layer1"
     transform="translate(-49.910594,-129.16932)">
    <path
       id="text1"
       style="font-size:101.58px;line-height:1.25;font-family:'LIBRARY 3 AM';-inkscape-font-specification:'LIBRARY 3 AM';letter-spacing:-18.5208px;stroke-width:3.80923;fill:#ffffff"
       d="M 49.910594 129.16932 L 49.910594 205.25253 L 92.917271 205.25253 L 96.992991 205.25253 L 122.73096 205.25253 C 138.22186 205.25253 147.8209 195.09477 147.8209 182.49888 C 147.8209 173.96619 144.62125 167.71893 139.03435 163.60494 C 142.28491 159.59256 143.7581 154.31056 143.7581 149.07922 C 143.7581 138.92125 134.92011 129.16932 120.19106 129.16932 L 96.812641 129.16932 L 92.917271 129.16932 L 49.910594 129.16932 z M 92.303872 133.43469 L 97.701992 133.43469 L 97.701992 133.43573 L 120.19106 133.43573 C 132.38063 133.43573 139.49169 141.10519 139.49169 149.07922 C 139.49169 157.71349 135.32684 161.87817 132.02548 164.46846 C 138.9329 167.41425 143.55449 173.00118 143.55449 182.49888 C 143.55449 192.35211 136.24105 200.98613 122.73096 200.98613 L 97.183161 200.98613 L 97.183161 200.98354 L 92.726585 200.98354 L 92.726585 200.98613 L 54.177 200.98613 L 54.177 133.43573 L 92.303872 133.43573 L 92.303872 133.43469 z M 92.546751 139.22452 L 92.546751 139.22555 L 60.57661 139.22555 L 60.57661 152.38031 L 64.843016 152.38031 L 64.843016 143.49196 L 92.917271 143.49196 L 92.917271 162.3859 L 119.73424 162.3859 C 128.26693 162.3859 133.29517 157.91658 133.29517 149.99337 C 133.29517 144.9144 129.63823 139.22555 119.37871 139.22555 L 103.58277 139.22555 L 103.58277 152.32966 L 107.84918 152.32966 L 107.84918 143.49196 L 119.37871 143.49196 C 125.06716 143.49196 129.02876 145.67625 129.02876 149.99337 C 129.02876 155.27553 126.08282 158.11949 120.14042 158.11949 L 97.183161 158.11949 L 97.183161 139.22452 L 92.546751 139.22452 z M 60.57661 158.17065 L 60.57661 195.1963 L 92.726585 195.1963 L 92.726585 195.19733 L 97.183161 195.19733 L 97.183161 172.39149 L 121.715 172.39149 C 129.38426 172.39149 132.88899 176.91168 132.88899 181.8891 C 132.88899 186.71412 130.04464 190.92989 122.93404 190.92989 L 107.84918 190.92989 L 107.84918 178.18183 L 103.58277 178.18183 L 103.58277 195.1963 L 122.93404 195.1963 C 132.68569 195.1963 137.1554 188.79651 137.1554 181.8891 C 137.1554 174.06747 131.2127 168.12508 121.715 168.12508 L 92.917271 168.12508 L 92.917271 190.92989 L 64.843016 190.92989 L 64.843016 162.43654 L 82.729263 162.43654 L 82.729263 168.22688 L 71.242625 168.22688 L 71.242625 172.49329 L 86.995669 172.49329 L 86.995669 158.17065 L 60.57661 158.17065 z " />
  </g>
</svg>
